<svg width="200" height="200" viewBox="0 0 200 200" xmlns="http://www.w3.org/2000/svg">
  <!-- Background -->
  <rect width="200" height="200" fill="white"/>
  
  <!-- Simple QR code pattern (just a placeholder) -->
  <g fill="#000">
    <!-- Positioning blocks -->
    <rect x="20" y="20" width="40" height="40"/>
    <rect x="30" y="30" width="20" height="20" fill="white"/>
    
    <rect x="140" y="20" width="40" height="40"/>
    <rect x="150" y="30" width="20" height="20" fill="white"/>
    
    <rect x="20" y="140" width="40" height="40"/>
    <rect x="30" y="150" width="20" height="20" fill="white"/>
    
    <!-- Data pattern (simplified) -->
    <rect x="80" y="20" width="10" height="10"/>
    <rect x="100" y="20" width="10" height="10"/>
    <rect x="120" y="20" width="10" height="10"/>
    
    <rect x="20" y="80" width="10" height="10"/>
    <rect x="40" y="80" width="10" height="10"/>
    <rect x="60" y="80" width="10" height="10"/>
    <rect x="90" y="80" width="10" height="10"/>
    <rect x="120" y="80" width="10" height="10"/>
    
    <rect x="20" y="100" width="10" height="10"/>
    <rect x="50" y="100" width="10" height="10"/>
    <rect x="70" y="100" width="10" height="10"/>
    <rect x="100" y="100" width="10" height="10"/>
    <rect x="130" y="100" width="10" height="10"/>
    
    <rect x="80" y="120" width="10" height="10"/>
    <rect x="110" y="120" width="10" height="10"/>
    <rect x="150" y="120" width="10" height="10"/>
    
    <rect x="70" y="140" width="10" height="10"/>
    <rect x="90" y="140" width="10" height="10"/>
    <rect x="110" y="150" width="10" height="10"/>
    <rect x="140" y="140" width="10" height="10"/>
    
    <rect x="80" y="170" width="10" height="10"/>
    <rect x="120" y="170" width="10" height="10"/>
    <rect x="150" y="170" width="10" height="10"/>
  </g>
  
  <!-- Logo in center -->
  <circle cx="100" cy="100" r="20" fill="#50C878"/>
  <text x="100" y="105" font-family="Arial" font-size="12" font-weight="bold" text-anchor="middle" fill="white">BT</text>
</svg> 